<?xml version="1.0" encoding="UTF-8"?>
<!DOCTYPE svg PUBLIC "-//W3C//DTD SVG 1.1//EN" "http://www.w3.org/Graphics/SVG/1.1/DTD/svg11.dtd">
<!-- Creator: CorelDRAW 2021 (64 Bit) -->
<svg xmlns="http://www.w3.org/2000/svg" xml:space="preserve" width="210mm" height="297mm" version="1.1" style="shape-rendering:geometricPrecision; text-rendering:geometricPrecision; image-rendering:optimizeQuality; fill-rule:evenodd; clip-rule:evenodd"
viewBox="0 0 21000 29700"
 xmlns:xlink="http://www.w3.org/1999/xlink"
 xmlns:xodm="http://www.corel.com/coreldraw/odm/2003">
 <defs>
  <style type="text/css">
   <![CDATA[
    .fil0 {fill:#354255;fill-rule:nonzero}
    .fil1 {fill:#A5C33F;fill-rule:nonzero}
   ]]>
  </style>
 </defs>
 <g id="Camada_x0020_1">
  <metadata id="CorelCorpID_0Corel-Layer"/>
  <path class="fil0" d="M11806.25 16577.44c184.87,-443.46 449.4,-846.95 786.23,-1195.79 127.95,-129.5 144.9,-333.72 41.8,-488.23l-332.74 -488.23 803.03 -548.11 332.88 488.23c103.66,154.51 299.41,214.25 470.29,144.48 447.98,-184.3 918.7,-283.87 1399.59,-293.9 184.3,0 341.21,-134.45 375.67,-313.81l110.58 -582.99 954 184.3 -110.58 582.99c-34.88,179.37 62.28,358.73 232.18,428.49 444.45,184.31 845.96,448.41 1194.8,787.22 132.47,129.5 336.27,144.47 488.79,39.82l489.65 -333.86 545.56 807.12 -489.21 333.87c-152.39,99.56 -211.71,298.84 -141.52,468.31 184.87,448.41 283.03,916.72 290.94,1400.01 3.53,184.3 135.58,338.81 316.49,373.69l580.31 109.59 -182.32 956.55 -580.46 -109.59c-180.77,-34.89 -361.12,59.74 -431.88,229.21 -184.3,443.46 -448.96,846.95 -785.8,1195.79 -127.95,134.45 -145.46,338.67 -41.8,488.23l332.88 488.23 -803.17 548.11 -333.3 -488.37c-103.1,-154.37 -299.41,-214.25 -469.31,-144.48 -448.4,184.45 -919.82,284.01 -1400.57,294.04 -183.88,0 -340.78,134.45 -375.1,313.81l-110.59 583 -954.14 -184.45 111.15 -577.91c34.32,-184.3 -62.85,-363.67 -232.75,-433.43 -444.45,-184.31 -845.96,-448.41 -1194.8,-787.21 -132.47,-124.57 -336.69,-144.48 -488.65,-39.83l-489.78 333.87 -546.14 -802.19 489.79 -333.86c152.52,-104.65 211.27,-298.84 141.51,-473.26 -184.87,-448.4 -283.03,-916.72 -291.5,-1400.01 -2.97,-184.44 -134.45,-338.81 -315.79,-373.69l-580.45 -109.59 181.9 -956.69 580.88 114.68c180.35,34.88 360.7,-64.83 431.45,-234.16zm-1248.6 -717.44c-101.12,-19.92 -206.2,4.94 -290.94,64.68 -85.72,54.8 -144.47,144.48 -163.82,244.18l-327.37 1718.9c-40.39,214.25 97.59,413.52 308.87,453.35l663.07 129.51c30.93,363.8 105.64,717.44 221.73,1066.28l-558.99 378.63c-85.16,59.74 -144.47,149.42 -163.4,249.13 -19.49,104.65 1.98,209.16 60.31,293.9l982.95 1444.92c57.76,84.59 147.44,144.47 248.71,164.39 101.12,19.91 205.77,-4.95 291.35,-59.74l558.99 -383.72c279.63,239.24 583.98,438.51 909.8,602.9l-125.98 662.65c-40.39,209.16 98.15,412.96 308.87,453.35l1717.91 327.37c24.86,4.94 49.29,7.48 73.16,7.48 183.31,0 345.87,-130.07 381.17,-316.35l127.11 -661.24c362.68,-34.88 719.42,-109.59 1066.7,-224.13l379.63 558c57.76,87.14 148.01,145.89 249.13,164.96 101.12,19.34 205.77,-2.12 290.93,-60.31l1446.89 -981.54c177.25,-119.62 223.57,-363.67 103.1,-543.03l-380.61 -558c236.13,-279.06 436.4,-582.99 599.23,-911.77l663.22 129.51c210.29,39.82 414.5,-99.71 454.89,-308.87l327.37 -1718.9c19.35,-99.71 -2.54,-204.36 -60.3,-294.04 -57.91,-84.6 -147.59,-139.4 -248.71,-159.31l-663.07 -129.65c-31.35,-358.72 -105.64,-717.44 -221.73,-1066.14l558.99 -378.63c177.95,-119.62 223.71,-363.67 103.1,-543.03l-982.96 -1444.91c-57.76,-84.74 -147.44,-144.48 -248.56,-164.4 -101.12,-19.91 -206.34,4.95 -291.5,64.69l-558.99 378.77c-279.49,-239.24 -584.4,-438.51 -910.22,-597.96l126.97 -667.59c39.82,-209.3 -98.58,-413.52 -309.44,-453.35l-1717.77 -328.92c-101.26,-14.83 -205.77,5.08 -291.49,64.82 -85.17,54.8 -144.06,144.48 -163.41,244.19l-126.54 667.59c-362.67,29.8 -719.98,104.65 -1066.7,219.19l-379.63 -558c-58.32,-84.74 -147.58,-144.48 -249.12,-164.39 -101.12,-19.91 -205.78,0 -291.5,59.74l-1446.33 986.49c-84.74,54.79 -144.05,144.47 -162.98,244.18 -19.35,104.65 1.98,209.16 60.31,293.9l379.62 558c-235.57,279.07 -436.4,582.99 -598.39,911.77l-663.63 -129.5z"/>
  <path class="fil0" d="M13397.62 17688.49c100.56,-528.2 401.52,-986.49 846.96,-1290.41 338.24,-229.22 729.45,-348.84 1129.41,-348.84 127.1,0 255.2,14.97 382.73,34.89 1092.12,209.3 1811.54,1270.49 1602.81,2361.63 -100.7,528.06 -402.08,986.49 -847.52,1290.41 -445.44,303.93 -982.53,413.52 -1511.57,313.81l0 0c-529.19,-104.51 -987.06,-403.49 -1289.99,-846.95 -302.94,-448.4 -413.52,-986.48 -312.83,-1514.54zm1457.21 3123.85l0 0c176.39,34.88 351.8,49.85 524.66,49.85 1313.86,0 2488.6,-931.69 2744.23,-2271.95 288.53,-1514.54 -707.98,-2979.37 -2221.54,-3268.33 -732.98,-139.53 -1476.69,14.97 -2094.57,433.43 -617.31,418.47 -1034.36,1056.26 -1174.32,1788.67 -139.53,732.42 14.41,1474.72 434,2092.45 419.45,617.88 1054.28,1036.34 1787.54,1175.88z"/>
  <path class="fil0" d="M2527.35 8341.8c147.87,109.59 352.23,99.57 490.21,-19.91 363.67,-323.98 777.75,-568.03 1229.68,-732.42 173.29,-64.82 278.51,-239.24 252.1,-418.6l-84.32 -587.8 962.2 -139.53 83.61 587.93c25.98,184.31 176.39,318.76 360.27,333.73 479.76,29.94 946.1,149.56 1385.04,353.78 167.35,79.65 365.64,29.94 476.36,-119.62l354.21 -473.26 777.74 582.85 -355.33 473.4c-110.58,144.48 -102.11,348.7 19.49,488.23 320.31,363.67 566.05,777.19 730.44,1230.67 62.7,174.28 238.11,278.93 421,254.07l584.83 -84.73 137.98 961.63 -584.83 84.59c-182.32,25 -320.87,174.42 -332.87,358.72 -30.37,478.35 -149.99,946.66 -354.63,1385.18 -78.24,164.39 -28.53,363.67 118.49,473.26l474.39 358.72 -582.01 777.19 -474.24 -358.73c-147.02,-109.59 -352.23,-99.56 -489.79,19.92 -363.66,323.84 -777.75,568.02 -1229.68,732.41 -172.86,64.83 -278.5,239.24 -252.52,418.61l84.18 587.79 -961.07 139.54 -84.17 -587.94c-25.99,-184.31 -176.4,-318.76 -360.28,-333.73 -479.75,-29.94 -946.09,-149.56 -1385.6,-353.77 -52.82,-24.86 -108.6,-34.89 -163.82,-34.89 -119.62,0 -236.14,54.8 -311.98,154.51l-354.62 473.26 -777.33 -582.86 355.19 -473.4c110.16,-149.42 102.25,-353.78 -19.35,-488.23 -320.3,-363.66 -566.47,-777.18 -730.43,-1230.67 -63.28,-174.28 -239.67,-278.93 -421.01,-254.07l-584.83 84.74 -138.54 -961.63 585.39 -84.6c181.9,-25 321.3,-174.42 332.88,-358.72 30.36,-478.34 149.42,-946.66 355.19,-1385.18 77.67,-164.39 27.82,-363.66 -119.62,-473.26l-473.83 -358.72 582.43 -777.18 473.4 358.72zm-2311.78 4538.82c30.37,209.16 227.1,358.73 439.93,328.79l668.58 -94.63c147.44,328.78 333.3,642.74 556.02,931.69l-405.05 543.03c-61.71,84.74 -88.12,189.39 -73.72,288.95 14.41,99.71 69.21,194.33 151.97,254.07l1399.44 1051.31c171.87,129.51 415.63,94.63 544.58,-79.79l405.04 -543.03c341.35,134.59 694.57,224.28 1055.83,273.99l95.61 667.73c14.41,99.57 69.21,194.19 151.4,254.07 68.36,49.86 149.99,79.65 233.73,79.65 17.94,0 36.44,0 54.8,-4.94l1731.33 -249.13c212.27,-29.94 360.28,-224.13 329.77,-438.37l-96.6 -667.73c333.3,-149.42 646.69,-333.73 937.2,-558l541.05 403.63c171.87,129.51 415.49,94.63 544.01,-74.71l1048.35 -1400c128.94,-174.42 93.63,-418.61 -77.82,-548.11l-541.05 -403.5c131.63,-338.8 222.29,-692.58 270.03,-1056.25l668.16 -94.76c102.67,-14.83 194.33,-69.77 256.04,-149.42 61.86,-84.74 88.27,-189.39 73.73,-288.96l-248.57 -1733.87c-30.36,-209.16 -226.67,-358.72 -439.93,-328.78l-668.58 94.62c-147.44,-328.78 -333.3,-642.73 -556.02,-936.63l405.05 -538.08c61.72,-84.74 88.13,-189.39 73.72,-288.96 -14.97,-104.65 -69.2,-194.33 -151.4,-254.07l-1400.14 -1051.31c-82.62,-59.74 -186.28,-89.68 -288.39,-74.71 -102.11,14.97 -194.33,69.77 -256.05,154.5l-405.05 538.09c-341.35,-129.65 -694.56,-219.33 -1055.26,-269.04l-96.18 -667.74c-30.36,-214.24 -226.67,-358.72 -439.93,-328.78l-1731.33 249.13c-102.11,14.97 -193.76,69.77 -255.62,149.42 -61.72,84.74 -88.69,189.39 -73.72,288.96l95.61 667.73c-332.74,149.42 -646.12,333.72 -936.63,557.99l-541.05 -403.63c-82.2,-64.68 -185.86,-89.68 -287.97,-74.71 -102.67,14.97 -194.89,69.77 -256.61,149.42l-1047.78 1400.01c-62.28,84.73 -88.13,189.39 -73.72,288.95 14.4,104.65 69.2,194.33 151.39,254.21l541.62 408.44c-132.47,338.81 -222.72,692.59 -270.46,1056.25l-668.72 94.77c-102.1,14.83 -193.76,69.62 -255.48,149.42 -61.86,84.74 -88.69,189.25 -73.86,288.95l248.7 1733.87z"/>
  <path class="fil0" d="M7568.81 10937.45c158.04,1101.17 -608.84,2127.48 -1709.86,2286.93 -1101.59,154.36 -2124.93,-612.8 -2282.83,-1713.96 -158.46,-1096.08 608.84,-2122.39 1709.3,-2281.84 97.16,-14.97 193.34,-19.92 288.53,-19.92 985.92,0 1850.95,727.48 1994.86,1728.79zm-1998.39 3084.02c131.62,0 265.09,-9.88 399.11,-29.8 1525.14,-219.32 2588.31,-1639.24 2369.12,-3163.81 -218.76,-1524.57 -1638.26,-2585.77 -3163.25,-2366.58 -1525.13,219.33 -2588.31,1639.25 -2369.54,3163.82 200.26,1389.97 1398.03,2396.37 2764.56,2396.37z"/>
  <path class="fil1" d="M2106.78 20907.97l1281.32 -593.94c943.26,1116.39 2553.62,1480.41 3890.77,860.59 1396.43,-647.3 2163.08,-2205.26 1822.76,-3704.6 -12.95,-56.86 -50.82,-104.95 -103.38,-130.89 -52.58,-25.63 -113.97,-26.47 -166.86,-1.95l-884.55 410.02c-76.56,35.49 -121.18,116.63 -110.61,200.33 108.31,848.3 -340.73,1659.93 -1117,2019.77 -681.98,316.12 -1472.39,211.87 -2045.21,-249.35l1274.82 -590.93c71.14,-32.98 115.33,-105.69 112.01,-183.76 -3.29,-78.32 -53.39,-146.94 -126.88,-173.87l-2811.46 -1030.54c-96.55,-35.4 -213.12,18.64 -248.5,115.19l-1030.61 2811.5c-26.88,73.45 -6.95,156.06 50.76,209.15 57.61,52.9 141.48,66.26 212.62,33.28z"/>
  <path class="fil1" d="M5361.95 18972.23l-1112.13 515.51c-56.27,26.09 -96.91,77.7 -108.59,138.62 -11.87,61 6.11,124.05 48.76,169.39 692.14,738.19 1774.01,948.48 2692.11,522.91 886.59,-410.97 1416.65,-1313.82 1352.17,-2277.62l533.45 -247.27c173.48,1246.1 -493.66,2492.68 -1651.72,3029.49 -1221.48,566.21 -2701.04,201.78 -3518.26,-866.45 -54.94,-71.88 -152.77,-95.98 -235.21,-57.77l-994.6 461.04 803.07 -2190.9 2190.95 803.05z"/>
  <path class="fil1" d="M12493.57 11690.03l954.42 -274.98c82.64,-23.82 140.5,-98.66 142.61,-184.51 23.42,-870.96 601.82,-1618.56 1439.93,-1860.04 736.06,-212.08 1515.6,16.14 2020.67,570.16l-1375.98 396.46c-76.78,22.12 -132.42,88.12 -141.44,167.31 -8.98,79.39 30.79,156.32 100.81,194.84l2670.78 1475.94c47.56,26.34 101.56,30.99 150.11,17.01 48.34,-13.93 91.57,-46.6 117.83,-94.21l1476.03 -2670.75c38.78,-69.86 31.31,-156.09 -18.32,-218.6 -49.71,-62.27 -132.27,-88.45 -208.78,-66.4l-1383.01 398.47c-776.02,-1271.54 -2340.95,-1889.12 -3784.14,-1473.3 -1507.37,434.31 -2522.09,1883.75 -2412.96,3446.7 3.98,59.34 34.88,113.83 83.64,147.96 48.75,34.05 110.72,44.39 167.8,27.94z"/>
  <path class="fil1" d="M14764.35 8446.64c1318.07,-379.76 2751.49,217.76 3408.08,1420.87 44.22,81.23 138.9,120.47 227.6,94.92l1073.47 -309.29 -1149.89 2081.42 -2081.56 -1150.36 1200.32 -345.84c61.01,-17.58 109.91,-63.22 131.17,-122.74 21.53,-59.61 12.96,-125.82 -22.92,-178.13 -581.98,-851.27 -1638.72,-1231.65 -2629.35,-946.22 -956.89,275.7 -1631.68,1102.4 -1716.89,2083.26l-575.48 165.81c19.44,-1282.15 885.55,-2433.56 2135.45,-2793.7z"/>
 </g>
</svg>
