<?xml version="1.0" encoding="UTF-8"?>
<!DOCTYPE svg PUBLIC "-//W3C//DTD SVG 1.1//EN" "http://www.w3.org/Graphics/SVG/1.1/DTD/svg11.dtd">
<!-- Creator: CorelDRAW 2021 (64 Bit) -->
<svg xmlns="http://www.w3.org/2000/svg" xml:space="preserve" width="210mm" height="297mm" version="1.1" style="shape-rendering:geometricPrecision; text-rendering:geometricPrecision; image-rendering:optimizeQuality; fill-rule:evenodd; clip-rule:evenodd"
viewBox="0 0 21000 29700"
 xmlns:xlink="http://www.w3.org/1999/xlink"
 xmlns:xodm="http://www.corel.com/coreldraw/odm/2003">
 <defs>
  <style type="text/css">
   <![CDATA[
    .fil0 {fill:#354255;fill-rule:nonzero}
    .fil1 {fill:#354255;fill-rule:nonzero;fill-opacity:0.501961}
   ]]>
  </style>
 </defs>
 <g id="Camada_x0020_1">
  <metadata id="CorelCorpID_0Corel-Layer"/>
  <g id="_3016067865520">
   <g>
    <g>
     <path class="fil0" d="M14279.39 18065.82c-14.77,-13.13 -29.18,-25.07 -44.31,-37.02 -9.4,-6.93 -19.15,-15.13 -29.18,-21.43 -879.63,-933.6 -2146.15,-1502.12 -3535.57,-1485.8l0 -2.55c-19.15,-0.55 -38.02,1.91 -57.17,1.27 -19.15,0.64 -37.66,-1.82 -57.17,-1.27l0 2.55c-1389.34,-16.32 -2655.58,552.2 -3535.48,1485.8 -9.76,6.3 -19.79,14.5 -29.27,21.43 -15.04,11.95 -29.54,23.89 -44.22,37.02 -298.44,263.88 -366,657.15 -149.54,877.72l658.7 676.02c215.46,220.47 632.98,185.92 931.42,-78.51 7.84,-6.93 14.13,-14.5 22.61,-21.43l1.19 2.55c7.93,-9.48 15.41,-16.96 22.97,-26.44 25.17,-30.09 51.25,-60.91 78.24,-89.81 499.13,-551.65 1235.14,-888.38 2043.38,-870.15l0 5.02c15.41,-0.64 29.91,-5.02 44.95,-5.66 4.1,0 8.21,0 12.22,0 4.1,0 8.2,0 12.22,0 15.41,0.64 29.54,5.02 44.95,5.66l0 -5.02c808.6,-18.23 1544.25,318.5 2043.47,870.15 26.99,28.9 53.07,59.72 78.51,89.81 7.2,9.48 15.04,16.96 22.61,26.44l1.55 -2.55c8.48,6.93 14.77,14.5 22.34,21.43 298.71,264.43 715.87,298.98 931.69,78.51l658.43 -676.02c216.37,-220.57 148.9,-613.84 -149.54,-877.72z"/>
     <path class="fil0" d="M20531.81 10515.44c-19.15,-21.34 -40.49,-43.41 -62.83,-63.47 -27.63,-25.16 -57.44,-45.86 -87.35,-66.56 -2552.9,-2334.61 -6012.97,-3716.84 -9768.47,-3614.44 -3755.13,-102.4 -7215.2,1279.83 -9768.47,3614.44 -29.82,20.7 -59.73,41.4 -87.35,66.56 -22.25,20.06 -43.59,42.13 -62.46,63.47 -238.44,265.7 -250.12,648.39 -11.68,892.12l788.18 806.68c230.23,235.61 615.02,259.5 908.17,72.22l1.82 2.55c5.38,-5.02 11.67,-10.03 17.05,-15.05 26.63,-18.23 53.71,-38.38 79.42,-60.36 35.47,-31.36 66.66,-64.74 93.92,-99.93 2092.07,-1897.31 4918.97,-3017.48 7984.23,-2929.49l0 1.83c19.15,-0.64 38.02,0 57.17,-0.64 19.15,0.64 38.02,0 57.17,0.64l0 -1.83c3065.62,-87.99 5892.52,1032.18 7984.23,2929.49 27.35,35.19 58.72,68.57 94.28,99.93 25.44,21.98 52.43,42.13 79.15,60.36 5.28,5.02 11.67,10.03 16.95,15.05l2.19 -2.55c292.79,187.28 677.85,163.39 907.81,-72.22l788.17 -806.68c238.81,-243.73 227.14,-626.42 -11.3,-892.12z"/>
     <path class="fil0" d="M17117.87 14375.43c-29.81,-25.72 -60.36,-48.33 -93.28,-70.39 -1635.7,-1586.29 -3891.44,-2550.72 -6354.26,-2538.14l0 -0.64c-19.15,-0.63 -38.02,0.64 -57.17,0 -19.15,0.64 -38.02,-0.63 -57.17,0l0 0.64c-2462.73,-12.58 -4718.47,951.85 -6353.9,2538.14 -32.92,22.06 -63.74,44.67 -93.56,70.39 -11.94,11.3 -23.61,23.25 -35.83,34.56 -265.16,264.51 -299.35,654.68 -69.48,889.65l735.11 753.26c224.03,229.96 619.12,231.78 913.45,17.59 21.43,-16.32 42.77,-32.64 62.83,-50.24 53.43,-47.78 99.02,-100.48 135.77,-155.83 1228.21,-1177.33 2920.09,-1881.62 4762.78,-1853.35 1843.05,-28.27 3534.56,676.02 4762.87,1853.35 36.75,55.35 82.61,108.05 136.04,155.83 19.79,17.6 41.4,33.92 62.83,50.24 294.33,214.19 689.42,212.37 913.09,-17.59l735.11 -753.26c230.23,-234.97 195.67,-625.14 -69.39,-889.65 -12.31,-11.31 -23.89,-23.26 -35.84,-34.56z"/>
    </g>
    <path class="fil0" d="M10613.16 20831.45c-899.6,0 -1628.69,728.73 -1628.69,1628.41 0,899.69 729.09,1629.06 1628.69,1629.06 899.41,0 1628.78,-729.37 1628.78,-1629.06 0,-899.68 -729.37,-1628.41 -1628.78,-1628.41z"/>
   </g>
   <g>
    <path class="fil1" d="M1702.25 12287.09c435.12,-1046.03 1371.19,-2869.21 3054.04,-4349.45 -1391.98,610.1 -2664.51,1439.39 -3767.08,2447.77 -29.91,20.7 -59.72,41.4 -87.35,66.56 -22.25,20.06 -43.68,42.13 -62.46,63.47 -238.44,265.7 -250.11,648.39 -11.67,892.12l788.17 806.68c26.72,27.63 55.9,51.52 86.35,72.85z"/>
   </g>
   <g>
    <path class="fil1" d="M19535.37 12287.09c-435.03,-1046.03 -1371.1,-2869.21 -3053.94,-4349.45 1391.88,610.1 2664.41,1439.39 3767.07,2447.77 29.82,20.7 59.64,41.4 87.26,66.56 22.34,20.06 43.68,42.13 62.56,63.47 238.44,265.7 250.02,648.39 11.58,892.12l-788.09 806.68c-26.71,27.63 -55.89,51.52 -86.44,72.85z"/>
   </g>
   <g>
    <path class="fil1" d="M4616.78 15734.4c268.53,-708.12 855.1,-1945.09 1947.55,-2969.79 -916.56,437.22 -1749.05,1017.77 -2464.28,1714.49 -19.24,14.5 -39.02,28.91 -56.62,46.5 -14.68,13.77 -28.27,28.91 -40.48,43.31 -153.65,182.92 -153.65,439.23 11.03,596.88l543.44 522.11c18.51,17.59 38.3,32.64 59.36,46.5z"/>
   </g>
   <g>
    <path class="fil1" d="M16611.45 15748.17c-250.66,-714.96 -806.04,-1966.43 -1872.51,-3018.12 905.35,459.83 1722.7,1061.18 2420.33,1776.04 19.24,15.14 38.39,29.54 55.62,47.78 14.13,13.86 27.63,29.54 39.3,44.59 148.9,186.01 142.61,442.32 -26.08,595.6l-556.02 508.24c-18.79,17.6 -39.21,32.1 -60.64,45.87z"/>
   </g>
   <g>
    <path class="fil1" d="M8191.56 17157.38c-412.42,233.06 -786.9,523.93 -1108.59,865.77 -9.67,6.2 -19.79,14.41 -29.18,21.34 -15.04,11.94 -29.54,23.88 -44.31,37.11 -298.44,263.78 -366.01,657.14 -149.54,877.62l337.1 346.12c52.15,-386.33 255.95,-1364.53 994.52,-2147.96z"/>
   </g>
   <g>
    <path class="fil1" d="M13044.88 17141.7c412.42,233.06 786.9,523.93 1108.5,865.67 9.75,6.3 19.78,14.5 29.27,21.43 15.04,11.95 29.54,23.89 44.31,37.02 298.44,263.88 365.91,657.15 149.54,877.72l-337.1 346.12c-52.16,-386.34 -256.04,-1364.53 -994.52,-2147.96z"/>
   </g>
   <path class="fil1" d="M10994.21 20898.65c-122.83,-29.54 -249.39,-48.96 -381.05,-48.96 -899.6,0 -1628.69,728.72 -1628.69,1628.41 0,273.27 73.77,527.76 193.12,753.89 190.39,-1532.31 1323.41,-2140.49 1816.62,-2333.34z"/>
  </g>
 </g>
</svg>
