<?xml version="1.0" encoding="UTF-8"?>
<!DOCTYPE svg PUBLIC "-//W3C//DTD SVG 1.1//EN" "http://www.w3.org/Graphics/SVG/1.1/DTD/svg11.dtd">
<!-- Creator: CorelDRAW 2021 (64 Bit) -->
<svg xmlns="http://www.w3.org/2000/svg" xml:space="preserve" width="210mm" height="297mm" version="1.1" style="shape-rendering:geometricPrecision; text-rendering:geometricPrecision; image-rendering:optimizeQuality; fill-rule:evenodd; clip-rule:evenodd"
viewBox="0 0 21000 29700"
 xmlns:xlink="http://www.w3.org/1999/xlink"
 xmlns:xodm="http://www.corel.com/coreldraw/odm/2003">
 <defs>
  <style type="text/css">
   <![CDATA[
    .fil0 {fill:#FEFEFE;fill-rule:nonzero}
    .fil2 {fill:#05BBBD;fill-rule:nonzero}
    .fil3 {fill:#354255;fill-rule:nonzero}
    .fil1 {fill:#A5C33F;fill-rule:nonzero}
    .fil5 {fill:#A5C33F;fill-rule:nonzero}
    .fil8 {fill:#373435;fill-rule:nonzero;fill-opacity:0.200000}
    .fil4 {fill:#FEFEFE;fill-rule:nonzero;fill-opacity:0.301961}
    .fil7 {fill:#FEFEFE;fill-rule:nonzero;fill-opacity:0.501961}
    .fil6 {fill:#A5C33F;fill-rule:nonzero;fill-opacity:0.501961}
   ]]>
  </style>
 </defs>
 <g id="Camada_x0020_1">
  <metadata id="CorelCorpID_0Corel-Layer"/>
  <g id="_3016065606848">
   <g>
    <polygon class="fil0" points="-19040.57,5435.15 -18946.14,14510.88 -3724.97,14463.84 -3630.44,5198.43 "/>
    <polygon class="fil1" points="-13413.56,18181.49 -13849.6,18954.26 -8281.14,19073.26 -8776.63,18260.82 "/>
    <g>
     <polygon class="fil2" points="-19199.86,15961.64 -20329.26,18161.61 -2296.52,18181.49 -3703.66,15941.85 "/>
    </g>
    <g>
     <polygon class="fil2" points="-21607.51,19307.47 -21607.51,20065.4 -956.39,19941.46 -946.5,19307.47 -1348.09,19098.62 -8997.79,19068.94 -12086.48,19098.62 -18739.72,19232.54 -21064.89,19078.83 "/>
    </g>
    <g>
     <path class="fil3" d="M-3989.94 4643.22l-15159.46 0c-480.83,0 -868.48,389.72 -868.48,869.46l0 8781.26c0,479.75 387.65,870.73 868.48,870.73l15159.46 0c482.18,0 870.1,-390.98 870.1,-870.73l0 -8781.26c0,-479.74 -387.92,-869.46 -870.1,-869.46zm-495.76 9332.87l0 0 -14230.81 0 0 -8257.71 14230.81 0 0 8257.71z"/>
     <g>
      <path class="fil3" d="M-1054.97 19286.42c24.2,0 46.5,8.09 67.82,21.05l40.65 0 -2483.19 -3598.03 -16305.32 -35.97 -1872.5 3634 51.18 0c21.68,-12.96 43.98,-21.05 68.18,-21.05l20433.18 0zm-12442.6 -404.65l0 0 276.39 -502.59 3658.19 4.32 364.36 498.27 -4298.94 0zm-5355.57 -2715.6l0 0 14452.35 12.95 1268.89 1809.62 -16602.48 -20.5 881.24 -1802.07z"/>
      <path class="fil3" d="M-987.15 19818.15l-20569.18 0c-102.26,58.83 -177.27,245.99 -177.27,472.83 0,275.76 108.83,496.38 245.45,496.38l20433.18 0c136.62,0 245.45,-220.62 245.45,-496.38 0,-226.84 -74.38,-414 -177.63,-472.83z"/>
     </g>
     <path class="fil1" d="M-8125.9 11152.65l-1202.52 -911.56c-21.4,-21.05 -46.23,-35.98 -69.16,-47.13l678.61 -839.06 -1496 -240.51 -1499.06 -239.15 541.9 1416.04 543.52 1419.18 611.33 -752.36c21.68,22.94 52.71,49.56 86.79,73.76l1197.93 917.76c134.11,99.2 271.99,142.56 313.54,92.37l467.88 -614.75c37.5,-50.19 -42.1,-172.33 -174.76,-274.59z"/>
    </g>
   </g>
   <path class="fil4" d="M-18075.41 4690.89l-945.65 0c-480.91,0 -868.56,389.8 -868.56,869.46l0 283.86c280.71,-429.47 813.97,-881.25 1814.21,-1153.32z"/>
   <path class="fil4" d="M-5042.17 4690.89l945.65 0c480.92,0 868.57,389.8 868.57,869.46l0 283.86c-280.71,-429.47 -814.07,-881.25 -1814.22,-1153.32z"/>
   <path class="fil4" d="M-18152.22 15070.5l-945.74 0c-480.91,0 -868.47,-389.81 -868.47,-869.46l0 -283.23c280.71,429.47 813.97,881.25 1814.21,1152.69z"/>
   <path class="fil4" d="M-5119.07 15070.5l945.74 0c480.92,0 868.48,-389.81 868.48,-869.46l0 -283.23c-280.71,429.47 -813.98,881.25 -1814.22,1152.69z"/>
   <path class="fil4" d="M-21015.06 18394.65l-402.13 747.95 1290.21 0c0,0 -888.08,-149.3 -888.08,-747.95z"/>
   <path class="fil4" d="M-1655.78 18420.64l465.45 721.96 -1466.86 0c0,0 1001.41,-123.85 1001.41,-721.96z"/>
  </g>
  <g id="_3016065606560">
   <path class="fil5" d="M49599.33 15665.85c0,1036.4 -840.05,1877.63 -1878.2,1877.63 -1036.9,0 -1877.63,-841.23 -1877.63,-1877.63 0,-1038.15 840.73,-1878.2 1877.63,-1878.2 1038.15,0 1878.2,840.05 1878.2,1878.2z"/>
   <path class="fil3" d="M53276.06 22035.96c-2106.89,0 -5057.19,-1127.56 -7891.51,-3016.75 -2108.56,-1404.76 -3880.6,-3053.11 -4988.55,-4640.38 -1175.5,-1685.9 -1473.98,-3136.83 -841.23,-4086.57 434.82,-653.03 1266.24,-997.77 2405.37,-997.77 2107.97,0 5058.35,1128.24 7893.77,3017.34 2108.06,1405.34 3879.43,3052.61 4986.79,4639.79 1176.17,1685.98 1475.23,3137.42 841.82,4087.25 -434.74,651.85 -1266.75,997.09 -2406.46,997.09zm-11315.92 -11987.97l0 0c-610.29,0 -1414.57,114.88 -1778.91,662.24 -443.45,664 -139.1,1844.19 833.69,3237.3 1054.32,1512.19 2754.71,3090.74 4787.02,4445.22 2674.94,1782.35 5538.76,2889.71 7474.12,2889.71 610.87,0 1415.15,-114.88 1778.83,-661.07 443.44,-664.5 139.77,-1844.69 -832.52,-3237.88 -1055.41,-1512.1 -2754.63,-3090.66 -4786.44,-4445.14 -2676.11,-1782.43 -5541.02,-2890.38 -7475.79,-2890.38z"/>
   <path class="fil3" d="M41952.09 21889.31c-1220.57,0 -2097.08,-366.6 -2534.16,-1060.6 -607.94,-966.01 -271.33,-2408.22 948.07,-4064.12 1148.42,-1557.77 2960.77,-3159.95 5105.7,-4510.5 2797.96,-1761.56 5719.43,-2814.04 7812.99,-2814.04 1220.58,0 2097,367.19 2534.67,1061.78 608.02,966.5 271.33,2408.8 -948.07,4062.94 -1148.93,1558.95 -2961.28,3160.54 -5105.12,4510.42 -2799.04,1762.73 -5720.01,2814.12 -7814.08,2814.12zm11332.6 -11695.26l0 0c-1928.99,0 -4769.09,1033.54 -7411.69,2698.07 -2067,1301.43 -3806.61,2836.08 -4900.15,4319.94 -1008.65,1367.81 -1342.42,2539.28 -916.31,3215.35 367.78,585.48 1233.81,708.49 1895.55,708.49 1928.99,0 4769.6,-1033.54 7412.78,-2698.07 2065.91,-1300.85 3806.11,-2834.91 4900.24,-4318.77 1007.48,-1368.39 1341.82,-2540.45 915.72,-3215.34 -368.95,-586.07 -1234.48,-709.67 -1896.14,-709.67z"/>
   <path class="fil3" d="M47618.39 25355.29c-2259.23,0 -4030.68,-4256.93 -4030.68,-9690.61 0,-5434.27 1771.45,-9690.02 4030.68,-9690.02 2259.82,0 4030.01,4255.75 4030.01,9690.02 0,5433.68 -1770.19,9690.61 -4030.01,9690.61zm0 -18627.14l0 0c-1581.99,0 -3276.01,3590.67 -3276.01,8936.53 0,5346.45 1694.02,8937.7 3276.01,8937.7 1582.58,0 3276.6,-3591.25 3276.6,-8937.7 0,-5345.86 -1694.02,-8936.53 -3276.6,-8936.53z"/>
   <path class="fil6" d="M48306.02 13941.24c-181.33,-60.66 -375.32,-94.69 -577.35,-94.69 -1005.81,0 -1821.06,815.26 -1821.06,1822.15 0,562.36 255.24,1065.22 655.87,1399.57 -249.38,-2306.58 1017.96,-2949.21 1742.54,-3127.03z"/>
  </g>
  <path class="fil0" d="M32719.91 5872.09c0,123.68 -100.25,224.07 -224.14,224.07 -123.74,0 -224.07,-100.39 -224.07,-224.07 0,-123.89 100.33,-224.14 224.07,-224.14 123.89,0 224.14,100.25 224.14,224.14z"/>
  <path class="fil3" d="M33158.68 6632.28c-251.43,0 -603.51,-134.56 -941.75,-360.01 -251.63,-167.64 -463.1,-364.35 -595.32,-553.77 -140.28,-201.19 -175.9,-374.34 -100.39,-487.68 51.89,-77.93 151.11,-119.07 287.05,-119.07 251.56,0 603.65,134.64 942.02,360.08 251.57,167.71 462.96,364.29 595.11,553.7 140.36,201.2 176.05,374.41 100.46,487.76 -51.88,77.79 -151.17,118.99 -287.18,118.99zm-1350.41 -1430.61l0 0c-72.83,0 -168.81,13.71 -212.29,79.03 -52.92,79.24 -16.6,220.08 99.49,386.33 125.82,180.46 328.74,368.84 571.27,530.48 319.22,212.7 660.98,344.85 891.94,344.85 72.9,0 168.88,-13.71 212.28,-78.89 52.92,-79.3 16.68,-220.14 -99.35,-386.4 -125.95,-180.45 -328.73,-368.83 -571.2,-530.47 -319.36,-212.71 -661.25,-344.93 -892.14,-344.93z"/>
  <path class="fil3" d="M31807.31 6614.78c-145.66,0 -250.26,-43.75 -302.42,-126.57 -72.55,-115.28 -32.38,-287.39 113.14,-485 137.05,-185.9 353.33,-377.1 609.3,-538.27 333.9,-210.22 682.54,-335.82 932.38,-335.82 145.66,0 250.25,43.82 302.48,126.71 72.56,115.34 32.38,287.46 -113.14,484.86 -137.11,186.04 -353.39,377.17 -609.23,538.26 -334.03,210.36 -682.61,335.83 -932.51,335.83zm1352.4 -1395.68l0 0c-230.2,0 -569.13,123.34 -884.49,321.98 -246.67,155.31 -454.27,338.45 -584.77,515.53 -120.37,163.23 -160.2,303.03 -109.35,383.71 43.89,69.87 147.24,84.55 226.21,84.55 230.2,0 569.19,-123.34 884.62,-321.98 246.54,-155.24 454.21,-338.31 584.78,-515.39 120.23,-163.3 160.13,-303.17 109.28,-383.71 -44.03,-69.94 -147.32,-84.69 -226.28,-84.69z"/>
  <path class="fil3" d="M32483.51 7028.4c-269.61,0 -481.01,-508.01 -481.01,-1156.45 0,-648.51 211.4,-1156.38 481.01,-1156.38 269.68,0 480.93,507.87 480.93,1156.38 0,648.44 -211.25,1156.45 -480.93,1156.45zm0 -2222.91l0 0c-188.79,0 -390.95,428.5 -390.95,1066.46 0,638.03 202.16,1066.6 390.95,1066.6 188.86,0 391.02,-428.57 391.02,-1066.6 0,-637.96 -202.16,-1066.46 -391.02,-1066.46z"/>
  <path class="fil7" d="M32565.57 5666.28c-21.64,-7.24 -44.79,-11.3 -68.9,-11.3 -120.03,0 -217.32,97.29 -217.32,217.45 0,67.11 30.46,127.12 78.27,167.02 -29.76,-275.26 121.48,-351.95 207.95,-373.17z"/>
  <g id="_3016065596480">
   <polygon class="fil0" points="4547.42,21538.77 5535.76,5648.53 15580.01,5813.35 15333.17,23432.46 8170.37,23679.39 "/>
   <path class="fil3" d="M14551.73 4537.06l-8086.21 0c-1343.86,0 -2434.05,1090.08 -2434.05,2434.14l0 15537.36c0,1343.86 1090.19,2434.24 2434.05,2434.24l8086.21 0c1344.16,0 2433.76,-1090.38 2433.76,-2434.24l0 -15537.36c0,-1344.06 -1089.6,-2434.14 -2433.76,-2434.14zm-5356.01 2667.8l0 0 3349.45 0c151.64,0 273.79,121.96 273.79,273.6 0,151.73 -122.15,273.5 -273.79,273.5l-3349.45 0c-151.06,0 -273.21,-121.77 -273.21,-273.5 0,-151.64 122.15,-273.6 273.21,-273.6zm-3062.48 -219.5l0 0c0,-272.13 220.97,-493 493.1,-493 272.81,0 493.49,220.87 493.49,493 0,273.01 -220.68,493.78 -493.49,493.78 -272.13,0 -493.1,-220.77 -493.1,-493.78zm5783.5 15576.71l0 0 -2092.69 0c-94.81,0 -170.87,-75.87 -170.87,-171.56 0,-93.25 76.06,-169.71 170.87,-169.71l2092.69 0c94.52,0 171.26,76.46 171.26,169.71 0,95.69 -76.74,171.56 -171.26,171.56zm2730.19 -2051.29l0 0 -7853.04 0 0 -11533.79 7853.04 0 0 11533.79z"/>
   <path class="fil7" d="M4692.13 6963.29c0,0 128.79,-1851.8 2196.28,-1851.8l7107.25 0c0,0 2153.51,42.87 2153.51,1937.92 0,0 42.77,-1248.85 -3058.08,-1248.85l-5513.42 0c0,0 -1937.92,-215.89 -2885.54,1162.73z"/>
   <path class="fil8" d="M5036.61 23202.02c0,0 215.3,1249.05 1895.16,1249.05l7192.77 0c0,0 1809.04,-301.43 1809.04,-1119.87 0,0 -5728.04,904.57 -10896.97,-129.18z"/>
  </g>
 </g>
</svg>
