<?xml version="1.0" encoding="UTF-8"?>
<!DOCTYPE svg PUBLIC "-//W3C//DTD SVG 1.1//EN" "http://www.w3.org/Graphics/SVG/1.1/DTD/svg11.dtd">
<!-- Creator: CorelDRAW 2021 (64 Bit) -->
<svg xmlns="http://www.w3.org/2000/svg" xml:space="preserve" width="210mm" height="297mm" version="1.1" style="shape-rendering:geometricPrecision; text-rendering:geometricPrecision; image-rendering:optimizeQuality; fill-rule:evenodd; clip-rule:evenodd"
viewBox="0 0 21000 29700"
 xmlns:xlink="http://www.w3.org/1999/xlink"
 xmlns:xodm="http://www.corel.com/coreldraw/odm/2003">
 <defs>
  <style type="text/css">
   <![CDATA[
    .fil0 {fill:#FEFEFE;fill-rule:nonzero}
    .fil2 {fill:#05BBBD;fill-rule:nonzero}
    .fil3 {fill:#354255;fill-rule:nonzero}
    .fil1 {fill:#A5C33F;fill-rule:nonzero}
    .fil4 {fill:#FEFEFE;fill-rule:nonzero;fill-opacity:0.301961}
   ]]>
  </style>
 </defs>
 <g id="Camada_x0020_1">
  <metadata id="CorelCorpID_0Corel-Layer"/>
  <g id="_3016061834592">
   <g>
    <polygon class="fil0" points="2698.47,7519.6 2792.9,16595.33 18014.07,16548.29 18108.6,7282.88 "/>
    <polygon class="fil1" points="8325.48,20265.94 7889.44,21038.71 13457.9,21157.71 12962.41,20345.27 "/>
    <g>
     <polygon class="fil2" points="2539.18,18046.09 1409.78,20246.06 19442.52,20265.94 18035.38,18026.3 "/>
    </g>
    <g>
     <polygon class="fil2" points="131.53,21391.92 131.53,22149.85 20782.65,22025.91 20792.54,21391.92 20390.95,21183.07 12741.25,21153.39 9652.56,21183.07 2999.32,21316.99 674.15,21163.28 "/>
    </g>
    <g>
     <path class="fil3" d="M17749.1 6727.67l-15159.46 0c-480.83,0 -868.48,389.72 -868.48,869.46l0 8781.26c0,479.75 387.65,870.73 868.48,870.73l15159.46 0c482.18,0 870.1,-390.98 870.1,-870.73l0 -8781.26c0,-479.74 -387.92,-869.46 -870.1,-869.46zm-495.76 9332.87l0 0 -14230.81 0 0 -8257.71 14230.81 0 0 8257.71z"/>
     <g>
      <path class="fil3" d="M20684.07 21370.87c24.2,0 46.5,8.09 67.82,21.05l40.65 0 -2483.19 -3598.03 -16305.32 -35.97 -1872.5 3634 51.18 0c21.68,-12.96 43.98,-21.05 68.18,-21.05l20433.18 0zm-12442.6 -404.65l0 0 276.39 -502.59 3658.19 4.32 364.36 498.27 -4298.94 0zm-5355.57 -2715.6l0 0 14452.35 12.95 1268.89 1809.62 -16602.48 -20.5 881.24 -1802.07z"/>
      <path class="fil3" d="M20751.89 21902.6l-20569.18 0c-102.26,58.83 -177.27,245.99 -177.27,472.83 0,275.76 108.83,496.38 245.45,496.38l20433.18 0c136.62,0 245.45,-220.62 245.45,-496.38 0,-226.84 -74.38,-414 -177.63,-472.83z"/>
     </g>
     <path class="fil1" d="M13613.14 13237.1l-1202.52 -911.56c-21.4,-21.05 -46.23,-35.98 -69.16,-47.13l678.61 -839.06 -1496 -240.51 -1499.06 -239.15 541.9 1416.04 543.52 1419.18 611.33 -752.36c21.68,22.94 52.71,49.56 86.79,73.76l1197.93 917.76c134.11,99.2 271.99,142.56 313.54,92.37l467.88 -614.75c37.5,-50.19 -42.1,-172.33 -174.76,-274.59z"/>
    </g>
   </g>
   <path class="fil4" d="M3663.63 6775.34l-945.65 0c-480.91,0 -868.56,389.8 -868.56,869.46l0 283.86c280.71,-429.47 813.97,-881.25 1814.21,-1153.32z"/>
   <path class="fil4" d="M16696.87 6775.34l945.65 0c480.92,0 868.57,389.8 868.57,869.46l0 283.86c-280.71,-429.47 -814.07,-881.25 -1814.22,-1153.32z"/>
   <path class="fil4" d="M3586.82 17154.95l-945.74 0c-480.91,0 -868.47,-389.81 -868.47,-869.46l0 -283.23c280.71,429.47 813.97,881.25 1814.21,1152.69z"/>
   <path class="fil4" d="M16619.97 17154.95l945.74 0c480.92,0 868.48,-389.81 868.48,-869.46l0 -283.23c-280.71,429.47 -813.98,881.25 -1814.22,1152.69z"/>
   <path class="fil4" d="M723.98 20479.1l-402.13 747.95 1290.21 0c0,0 -888.08,-149.3 -888.08,-747.95z"/>
   <path class="fil4" d="M20083.26 20505.09l465.45 721.96 -1466.86 0c0,0 1001.41,-123.85 1001.41,-721.96z"/>
  </g>
 </g>
</svg>
